# xmcd
#
# Track frame offsets: 
#        150
#        11801
#        27479
#        40055
#        51345
#        72646
#        87554
#        106503
#        126686
#        149499
#        161321
#
# Disc length: 2384 seconds
#
# Revision: 0
# Processed by: cddbd v1.5.2PL0 Copyright (c) Steve Scherf et al.
# Submitted via: ExactAudioCopy v0.99pb5
#
DISCID=9f094e0b
DTITLE=Kenny Rogers - Share Your Love
DYEAR=1981
DGENRE=Country
TTITLE0=Blaze Of Glory
TTITLE1=I Don't Need You
TTITLE2=The Good Life
TTITLE3=Makes Me Wonder If I Ever Said Goodbye
TTITLE4=Through The Years
TTITLE5=Share Your Love With Me
TTITLE6=So In Love With You
TTITLE7=Goin' Back To Alabama
TTITLE8=Without You In My Life
TTITLE9=Gray Beard
TTITLE10=Lady
EXTD=
EXTT0=
EXTT1=
EXTT2=
EXTT3=
EXTT4=
EXTT5=
EXTT6=
EXTT7=
EXTT8=
EXTT9=
EXTT10=
PLAYORDER=
